<svg xmlns="http://www.w3.org/2000/svg" viewBox="0 0 500 500"><defs><style>.cls-1,.cls-11,.cls-2,.cls-3{fill:none;}.cls-1{stroke:#6b53fd;}.cls-1,.cls-2,.cls-3{stroke-linecap:round;stroke-linejoin:round;stroke-width:7px;}.cls-2{stroke:#ff7100;}.cls-3{stroke:#2bb673;}.cls-4{font-size:59.31px;fill:#ff7100;font-family:NexaBold, Nexa Bold;}.cls-5,.cls-6{fill:#6b53fd;}.cls-6{letter-spacing:0.01em;}.cls-7{font-size:27.94px;font-family:NexaLight, Nexa Light;}.cls-8{letter-spacing:0.01em;}.cls-9{letter-spacing:0.01em;}.cls-10{letter-spacing:0em;}</style></defs><title>figoxd</title><g id="Logo_new" data-name="Logo new"><circle class="cls-1" cx="197.94" cy="214.73" r="38.84"/><circle class="cls-1" cx="413.99" cy="214.73" r="38.84"/><path class="cls-2" d="M248.84,215.92H363.09"/><polyline class="cls-2" points="197.94 214.73 122.48 214.73 122.48 132.16 165.89 132.16"/><polyline class="cls-2" points="175.6 125.87 228.16 54.47 333.84 54.47 375.16 125.87"/><path class="cls-2" d="M414,214.73h75.23c.37-3.8,3.24-38.9-24.57-64.29-28.6-26.12-64.55-19-68-18.28"/><line class="cls-2" x1="195.6" y1="132.16" x2="356.69" y2="132.16"/><line class="cls-1" x1="276.14" y1="118.83" x2="276.14" y2="70.84"/><line class="cls-3" x1="124.4" y1="105.59" x2="56.61" y2="105.59"/><line class="cls-3" x1="102.12" y1="160.72" x2="31.28" y2="160.72"/><line class="cls-3" x1="106.88" y1="189.28" x2="69.18" y2="189.28"/><line class="cls-3" x1="104.5" y1="132.16" x2="11.1" y2="132.16"/><text class="cls-4" transform="translate(71.16 325.13)">Random<tspan class="cls-5" x="235.12" y="0">Ri</tspan><tspan class="cls-6" x="288.91" y="0">d</tspan><tspan class="cls-5" x="326.22" y="0">e</tspan></text><text class="cls-7" transform="translate(83.96 368.81)">Incastriamo le <tspan class="cls-8" x="190.54" y="0">c</tspan><tspan x="204.93" y="0">oinci</tspan><tspan class="cls-9" x="262.21" y="0">d</tspan><tspan class="cls-10" x="279.7" y="0">enze</tspan></text><rect class="cls-11" x="10.52" y="11.04" width="478.95" height="478.95"/></g></svg>