<svg width="31" height="50" viewBox="0 0 31 50" fill="#32CD19" xmlns="http://www.w3.org/2000/svg">
<g filter="url(#filter0_f)">
<ellipse cx="15.3198" cy="45.1339" rx="5.15526" ry="2.86582" fill="black" fill-opacity="0.12"/>
</g>
<mask id="path-2-outside-1" maskUnits="userSpaceOnUse" x="0" y="0" width="31" height="46" fill="black">
<rect fill="white" width="31" height="46"/>
<path fill-rule="evenodd" clip-rule="evenodd" d="M29.6403 15.3291C29.6403 18.571 28.5644 21.5614 26.7504 23.9623C26.1074 24.8561 25.2395 25.8072 24.2791 26.8597C20.9338 30.5257 16.4658 35.4222 16.4658 43.4137C16.4658 44.0465 15.9529 44.5601 15.3202 44.5601C14.6875 44.5601 14.1746 44.0465 14.1746 43.4137C14.1746 35.4222 9.70655 30.5257 6.3613 26.8597L6.36127 26.8597C5.40122 25.8076 4.53364 24.8568 3.89069 23.9633C2.07621 21.5622 1 18.5714 1 15.3291C1 7.41536 7.41136 1 15.3202 1C23.229 1 29.6403 7.41536 29.6403 15.3291Z"/>
</mask>
<path fill-rule="evenodd" clip-rule="evenodd" d="M29.6403 15.3291C29.6403 18.571 28.5644 21.5614 26.7504 23.9623C26.1074 24.8561 25.2395 25.8072 24.2791 26.8597C20.9338 30.5257 16.4658 35.4222 16.4658 43.4137C16.4658 44.0465 15.9529 44.5601 15.3202 44.5601C14.6875 44.5601 14.1746 44.0465 14.1746 43.4137C14.1746 35.4222 9.70655 30.5257 6.3613 26.8597L6.36127 26.8597C5.40122 25.8076 4.53364 24.8568 3.89069 23.9633C2.07621 21.5622 1 18.5714 1 15.3291C1 7.41536 7.41136 1 15.3202 1C23.229 1 29.6403 7.41536 29.6403 15.3291Z"/>
<path d="M26.7504 23.9623L25.9525 23.3595L25.9455 23.3688L25.9387 23.3783L26.7504 23.9623ZM24.2791 26.8597L25.0177 27.5338L25.0177 27.5338L24.2791 26.8597ZM6.3613 26.8597L7.09998 26.1857L7.09845 26.184L6.3613 26.8597ZM6.36127 26.8597L5.62258 27.5338L5.62411 27.5354L6.36127 26.8597ZM3.89069 23.9633L4.70238 23.3793L4.69556 23.3698L4.68851 23.3604L3.89069 23.9633ZM27.5483 24.5651C29.4889 21.9966 30.6403 18.7959 30.6403 15.3291H28.6403C28.6403 18.346 27.6399 21.1262 25.9525 23.3595L27.5483 24.5651ZM25.0177 27.5338C25.9661 26.4945 26.8781 25.4971 27.5622 24.5463L25.9387 23.3783C25.3366 24.2151 24.5129 25.12 23.5404 26.1857L25.0177 27.5338ZM17.4658 43.4137C17.4658 35.844 21.6685 31.2042 25.0177 27.5338L23.5404 26.1857C20.1992 29.8473 15.4658 35.0003 15.4658 43.4137H17.4658ZM15.3202 45.5601C16.506 45.5601 17.4658 44.5979 17.4658 43.4137H15.4658C15.4658 43.495 15.3998 43.5601 15.3202 43.5601V45.5601ZM13.1746 43.4137C13.1746 44.5979 14.1344 45.5601 15.3202 45.5601V43.5601C15.2406 43.5601 15.1746 43.495 15.1746 43.4137H13.1746ZM5.62262 27.5338C8.97191 31.2042 13.1746 35.844 13.1746 43.4137H15.1746C15.1746 35.0003 10.4412 29.8473 7.09998 26.1857L5.62262 27.5338ZM5.62411 27.5354L5.62415 27.5355L7.09845 26.184L7.09842 26.184L5.62411 27.5354ZM3.079 24.5474C3.76293 25.4979 4.67458 26.4949 5.62258 27.5338L7.09995 26.1857C6.12785 25.1204 5.30435 24.2158 4.70238 23.3793L3.079 24.5474ZM0 15.3291C0 18.7964 1.15171 21.9975 3.09287 24.5662L4.68851 23.3604C3.00071 21.127 2 18.3464 2 15.3291H0ZM15.3202 0C6.85848 0 0 6.86366 0 15.3291H2C2 7.96705 7.96423 2 15.3202 2V0ZM30.6403 15.3291C30.6403 6.86366 23.7818 0 15.3202 0V2C22.6761 2 28.6403 7.96705 28.6403 15.3291H30.6403Z" fill="url(#paint0_linear)" mask="url(#path-2-outside-1)"/>
<ellipse cx="15.3198" cy="15.3289" rx="5.15526" ry="5.15848" fill="black" fill-opacity="0.4"/>
<defs>
<filter id="filter0_f" x="8.16455" y="40.2681" width="14.3105" height="9.73164" filterUnits="userSpaceOnUse" color-interpolation-filters="sRGB">
<feFlood flood-opacity="0" result="BackgroundImageFix"/>
<feBlend mode="normal" in="SourceGraphic" in2="BackgroundImageFix" result="shape"/>
<feGaussianBlur stdDeviation="1" result="effect1_foregroundBlur"/>
</filter>
<linearGradient id="paint0_linear" x1="15.3202" y1="1" x2="15.3202" y2="44.5602" gradientUnits="userSpaceOnUse">
<stop stop-color="white"/>
<stop offset="1" stop-color="white" stop-opacity="0.35"/>
</linearGradient>
</defs>
</svg>
