<svg width="36" height="36" viewBox="0 0 36 36" fill="none" xmlns="http://www.w3.org/2000/svg">
<circle cx="18" cy="18" r="18" fill="url(#paint0_linear)"/>
<path d="M26.0706 6.85938L22.2549 12.5838C22.0198 12.9374 21.7007 13.2272 21.3263 13.4275C20.9519 13.6277 20.5337 13.7321 20.1091 13.7314H15.077C14.3938 13.7321 13.7387 14.0038 13.2555 14.487C12.7724 14.9701 12.5007 15.6252 12.5 16.3085V21.4625C12.5005 21.918 12.6816 22.3547 13.0037 22.6768C13.3258 22.9989 13.7625 23.1801 14.218 23.1805V29.1936C14.2185 29.6491 14.3996 30.0858 14.7217 30.4079C15.0438 30.73 15.4805 30.9111 15.936 30.9116H19.3721C19.8276 30.9111 20.2643 30.73 20.5864 30.4079C20.9085 30.0858 21.0896 29.6491 21.0901 29.1936V18.8855H19.3721V29.1936H15.936V21.4625H14.218V16.3085C14.218 16.0806 14.3085 15.8622 14.4696 15.7011C14.6307 15.54 14.8492 15.4495 15.077 15.4495H20.1108C20.8181 15.4503 21.5145 15.276 22.1381 14.9422C22.7616 14.6084 23.2928 14.1255 23.6843 13.5364L27.5 7.81202L26.0706 6.85938Z" fill="white"/>
<path d="M14.218 9.43603C14.218 8.75645 14.4195 8.09213 14.7971 7.52708C15.1747 6.96202 15.7113 6.52162 16.3391 6.26155C16.967 6.00149 17.6579 5.93344 18.3244 6.06602C18.9909 6.1986 19.6032 6.52585 20.0837 7.00639C20.5642 7.48693 20.8915 8.09917 21.0241 8.7657C21.1566 9.43222 21.0886 10.1231 20.8285 10.7509C20.5685 11.3788 20.1281 11.9154 19.563 12.293C18.998 12.6705 18.3336 12.8721 17.6541 12.8721C16.743 12.8712 15.8696 12.5089 15.2254 11.8647C14.5812 11.2205 14.2189 10.347 14.218 9.43603ZM15.936 9.43603C15.936 9.77583 16.0368 10.108 16.2256 10.3905C16.4144 10.673 16.6827 10.8932 16.9966 11.0233C17.3105 11.1533 17.656 11.1873 17.9892 11.121C18.3225 11.0548 18.6286 10.8911 18.8689 10.6509C19.1091 10.4106 19.2728 10.1045 19.3391 9.7712C19.4053 9.43794 19.3713 9.0925 19.2413 8.77858C19.1113 8.46465 18.8911 8.19633 18.6085 8.00756C18.326 7.81878 17.9938 7.71802 17.6541 7.71802C17.1985 7.71847 16.7618 7.89962 16.4397 8.22172C16.1176 8.54381 15.9365 8.98053 15.936 9.43603Z" fill="white"/>
<defs>
<linearGradient id="paint0_linear" x1="0" y1="0" x2="41.8842" y2="26.8059" gradientUnits="userSpaceOnUse">
<stop stop-color="#FF7100" stop-opacity="0.88"/>
</linearGradient>
</defs>
</svg>
