<svg xmlns="http://www.w3.org/2000/svg" viewBox="0 0 500 375"><defs><style>.cls-1,.cls-2,.cls-3{fill:none;stroke-linecap:round;stroke-linejoin:round;stroke-width:7px;}.cls-1{stroke:#6b53fd;}.cls-2{stroke:#ff7100;}.cls-3{stroke:#2bb673;}</style></defs><title>logo car</title><g id="Logo_car" data-name="Logo car"><circle class="cls-1" cx="198.24" cy="297.54" r="38.84"/><circle class="cls-1" cx="414.3" cy="297.54" r="38.84"/><line class="cls-2" x1="249.15" y1="298.73" x2="363.4" y2="298.73"/><polyline class="cls-2" points="198.24 297.54 122.79 297.54 122.79 214.97 166.2 214.97"/><polyline class="cls-2" points="175.91 208.68 228.47 137.28 334.15 137.28 375.46 208.68"/><path class="cls-2" d="M414.3,297.54h75.22c.38-3.8,3.25-38.91-24.56-64.29-28.6-26.12-64.55-19-68-18.28"/><line class="cls-2" x1="195.9" y1="214.97" x2="357" y2="214.97"/><line class="cls-1" x1="276.45" y1="201.64" x2="276.45" y2="153.65"/><line class="cls-3" x1="124.7" y1="188.4" x2="56.92" y2="188.4"/><line class="cls-3" x1="102.42" y1="243.53" x2="31.59" y2="243.53"/><line class="cls-3" x1="107.18" y1="272.09" x2="69.48" y2="272.09"/><line class="cls-3" x1="103.61" y1="213.54" x2="10.22" y2="213.54"/></g></svg>