<svg width="36" height="36" viewBox="0 0 36 36" fill="none" xmlns="http://www.w3.org/2000/svg">
<circle cx="18" cy="18" r="18" fill="#C4C4C4"/>
<circle cx="18" cy="18" r="18" fill="url(#paint0_linear)"/>
<path d="M18.5483 6.54541C17.1683 6.20607 15.8865 7.23261 15.7941 8.56158C15.6901 10.0538 15.4621 11.424 15.1763 12.239C14.9958 12.7501 14.4848 13.6773 13.675 14.5661C12.871 15.4506 11.8244 16.2387 10.5989 16.5681C9.62882 16.8279 8.64001 17.6542 8.64001 18.8611V24.5419C8.64001 25.7416 9.62449 26.6205 10.7302 26.7355C12.2748 26.8974 12.9879 27.3248 13.7154 27.7621L13.7847 27.8047C14.1773 28.0389 14.6191 28.2988 15.1849 28.4919C15.758 28.685 16.4278 28.8 17.3011 28.8H22.3534C23.706 28.8 24.6616 28.1227 25.1452 27.2893C25.3789 26.896 25.5052 26.4499 25.5118 25.9944C25.5118 25.7786 25.4786 25.5514 25.4007 25.3356C25.6908 24.9622 25.9492 24.5149 26.1051 24.0563C26.2639 23.5877 26.3534 22.9744 26.1109 22.4249C26.2105 22.2403 26.2841 22.043 26.3404 21.8527C26.4516 21.4693 26.5035 21.0462 26.5035 20.6359C26.5035 20.227 26.4516 19.8053 26.3404 19.4205C26.2899 19.2436 26.2232 19.0716 26.1412 18.9065C26.394 18.5528 26.5566 18.1445 26.6154 17.7161C26.6742 17.2876 26.6274 16.8515 26.479 16.4445C26.1816 15.604 25.4945 14.8827 24.7468 14.6385C23.5241 14.2381 22.1441 14.2466 21.1149 14.3389C20.9012 14.3578 20.688 14.3815 20.4754 14.4099C20.9762 12.3006 20.9454 10.1028 20.3859 8.00785C20.2886 7.67218 20.1018 7.36819 19.845 7.12731C19.5882 6.88642 19.2706 6.71739 18.9251 6.6377L18.5483 6.54541ZM22.3534 27.3816H17.3011C16.5649 27.3816 16.0554 27.2836 15.6555 27.1487C15.2499 27.011 14.9251 26.825 14.5353 26.5907L14.4776 26.5566C13.6764 26.0753 12.7483 25.5187 10.8832 25.3242C10.4025 25.2731 10.0835 24.9125 10.0835 24.5433V18.8611C10.0835 18.5005 10.4098 18.0901 10.9785 17.9382C12.5592 17.5123 13.8323 16.524 14.7519 15.5131C15.6685 14.505 16.2878 13.4189 16.5389 12.7047C16.8897 11.7108 17.1264 10.1944 17.2347 8.65813C17.2708 8.14415 17.7544 7.81475 18.1975 7.92266L18.5757 8.01637C18.8067 8.07316 18.9482 8.2194 18.9915 8.37843C19.581 10.5877 19.5083 12.9176 18.7822 15.0872C18.7411 15.2078 18.7337 15.3372 18.7608 15.4616C18.788 15.586 18.8486 15.701 18.9364 15.7945C19.0242 15.8879 19.1359 15.9565 19.2599 15.9929C19.3839 16.0293 19.5155 16.0323 19.6411 16.0015L19.6454 16.0001L19.6656 15.9959L19.7493 15.976C20.2429 15.8729 20.7423 15.7985 21.2448 15.7531C22.2019 15.6679 23.348 15.6764 24.2906 15.9859C24.5432 16.0683 24.9402 16.4119 25.1134 16.9088C25.2679 17.3461 25.239 17.8601 24.7294 18.3599L24.2199 18.8611L24.7294 19.3637C24.7915 19.4248 24.881 19.5639 24.9517 19.811C25.021 20.0481 25.06 20.3363 25.06 20.6359C25.06 20.9369 25.021 21.2237 24.9517 21.4622C24.8796 21.7093 24.7915 21.8484 24.7294 21.9095L24.2199 22.4107L24.7294 22.9133C24.7973 22.9801 24.8868 23.1646 24.7367 23.6062C24.5802 24.0344 24.3316 24.4243 24.0077 24.7492L23.4981 25.2504L24.0077 25.753C24.0164 25.7601 24.0669 25.824 24.0669 25.9944C24.0605 26.2026 24.0004 26.4059 23.8922 26.585C23.654 26.9939 23.1661 27.3801 22.3534 27.3801V27.3816Z" fill="white"/>
<defs>
<linearGradient id="paint0_linear" x1="36" y1="36" x2="-5.88422" y2="9.1941" gradientUnits="userSpaceOnUse">
<stop stop-color="#6B53FD"/>
</linearGradient>
</defs>
</svg>
