<svg width="30" height="30" viewBox="0 0 30 30" fill="none" xmlns="http://www.w3.org/2000/svg">
<path d="M9.94853 17.6471C10.2469 17.6471 15.9485 17.6471 15.9485 17.6471C16.2469 17.6471 16.533 17.5285 16.744 17.3176C16.955 17.1066 17.0735 16.8204 17.0735 16.5221V7.52206C17.0735 7.22369 16.955 6.93754 16.744 6.72656C16.533 6.51559 16.2469 6.39706 15.9485 6.39706C15.6502 6.39706 15.364 6.51559 15.153 6.72656C14.9421 6.93754 14.8235 7.22369 14.8235 7.52206V15.3971H9.94853C9.65016 15.3971 9.36401 15.5156 9.15303 15.7266C8.94206 15.9375 8.82353 16.2237 8.82353 16.5221C8.82353 16.8204 8.94206 17.1066 9.15303 17.3176C9.36401 17.5285 9.65016 17.6471 9.94853 17.6471ZM15 0C23.283 0 30 6.717 30 15C30 23.283 23.283 30 15 30C6.717 30 0 23.283 0 15C0 6.717 6.717 0 15 0Z" fill="#6B53FD"/>
</svg>
